<svg xmlns="http://www.w3.org/2000/svg" width="151.395" height="18.728" viewBox="0 0 151.395 18.728"><defs><style>.a{fill:#fff;}</style></defs><g transform="translate(-772.742 -810.907)"><path class="a" d="M781.844,816.136a6.843,6.843,0,0,1,5.106,2.047l1.16-1.159a8.362,8.362,0,0,0-6.315-2.516,8.786,8.786,0,1,0-.025,17.564,8.4,8.4,0,0,0,6.34-2.541l-1.16-1.159a6.773,6.773,0,0,1-5.106,2.072,7.155,7.155,0,1,1,0-14.307Z" transform="translate(0 -2.713)"/><path class="a" d="M848.28,832.112A8.238,8.238,0,0,0,843,833.863l.789,1.307a6.609,6.609,0,0,1,4.317-1.53c2.417,0,3.676,1.209,3.676,3.429v.789h-4.119c-3.725,0-5.008,1.678-5.008,3.675,0,2.245,1.8,3.774,4.736,3.774a4.872,4.872,0,0,0,4.465-2.146v2.023h1.678v-8.042C853.535,833.789,851.635,832.112,848.28,832.112Zm3.5,9.176a4.151,4.151,0,0,1-4.119,2.639c-2.072,0-3.281-.937-3.281-2.442,0-1.332.814-2.319,3.33-2.319h4.07Z" transform="translate(-52.671 -15.975)"/><path class="a" d="M898.286,835.763c0-1.233,1.036-2.146,3.379-2.146a6.652,6.652,0,0,1,3.824,1.11l.765-1.406a8.793,8.793,0,0,0-4.588-1.209c-3.305,0-5.131,1.579-5.131,3.7,0,5.131,8.412,2.467,8.412,5.846,0,1.283-1.011,2.122-3.478,2.122a7.838,7.838,0,0,1-4.613-1.455l-.79,1.381a8.669,8.669,0,0,0,5.279,1.6c3.379,0,5.353-1.455,5.353-3.7C906.7,836.626,898.286,839.266,898.286,835.763Z" transform="translate(-92.909 -15.975)"/><path class="a" d="M949.031,810.907a1.246,1.246,0,1,0,1.283,1.209A1.244,1.244,0,0,0,949.031,810.907Z" transform="translate(-131.845)"/><rect class="a" width="1.751" height="12.975" transform="translate(816.298 816.235)"/><path class="a" d="M978.433,832.112A5.453,5.453,0,0,0,973.5,834.6v-2.393h-1.678v12.975h1.752v-6.808c0-2.96,1.751-4.687,4.539-4.687,2.467,0,3.9,1.406,3.9,4.144v7.351h1.751v-7.524C983.761,833.938,981.591,832.112,978.433,832.112Z" transform="translate(-149.982 -15.975)"/><path class="a" d="M1037.775,832.112a6.6,6.6,0,1,0,6.586,6.586A6.382,6.382,0,0,0,1037.775,832.112Zm0,11.643a5.063,5.063,0,1,1,4.81-5.057A4.751,4.751,0,0,1,1037.775,843.755Z" transform="translate(-194.688 -15.975)"/><path class="a" d="M1105.394,827.344l-3.947-12.235h-3.7l-4.07,12.136-3.9-12.136h-4.144l5.674,17.268h4.267l3.922-11.693,3.8,11.693h4.292l5.649-17.268h-3.823Z" transform="translate(-235.725 -3.165)"/><path class="a" d="M1267.947,832.461v-1.751h-3.676V843.98h3.848v-6.265c0-2.541,1.406-3.7,3.527-3.7.3,0,.543.024.863.049v-3.552A5.356,5.356,0,0,0,1267.947,832.461Z" transform="translate(-370.305 -14.77)"/><rect class="a" width="3.848" height="18.304" transform="translate(903.727 810.907)"/><path class="a" d="M1338.6,810.907v6.438a5.1,5.1,0,0,0-3.972-1.6,6.836,6.836,0,0,0,0,13.666,5.105,5.105,0,0,0,4.144-1.727v1.529h3.676v-18.3Zm-3.306,15.344a3.689,3.689,0,1,1,3.38-3.676A3.367,3.367,0,0,1,1335.3,826.251Z" transform="translate(-418.312)"/><path class="a" d="M1205.235,830.512a6.946,6.946,0,1,0,6.946,6.946A6.946,6.946,0,0,0,1205.235,830.512Zm3.612,9.6a2.506,2.506,0,0,1-2.9.467l.661,1.5a.169.169,0,0,1-.154.237h-2.436a.169.169,0,0,1-.151-.243l.659-1.5a2.507,2.507,0,0,1-2.9-.467c-2.155-2.154,1.243-5.088,2.671-6.586.323-.339.611-.64.815-.869a.167.167,0,0,1,.25,0c.2.229.492.531.815.87C1207.6,835.022,1211,837.956,1208.847,840.11Z" transform="translate(-320.596 -14.77)"/></g></svg>